<?xml version="1.0" encoding="UTF-8" standalone="no"?>
<svg width="364.419mm" height="25.4mm"
 xmlns="http://www.w3.org/2000/svg" xmlns:xlink="http://www.w3.org/1999/xlink"  version="1.2" baseProfile="tiny">
<title>Qt SVG Document</title>
<desc>Generated with Qt</desc>
<defs>
</defs>
<g fill="none" stroke="black" stroke-width="1" fill-rule="evenodd" stroke-linecap="square" stroke-linejoin="bevel" >

<g fill="none" stroke="#000000" stroke-opacity="1" stroke-width="1" stroke-linecap="square" stroke-linejoin="bevel" transform="matrix(1,0,0,1,0,0)"
font-family="Sans Serif" font-size="9" font-weight="400" font-style="normal" 
>
</g>

<g fill="none" stroke="#000000" stroke-opacity="1" stroke-width="1" stroke-linecap="square" stroke-linejoin="bevel" transform="matrix(1,0,0,1,0,0)"
font-family="Sans Serif" font-size="9" font-weight="400" font-style="normal" 
>
</g>

<g fill="none" stroke="#000000" stroke-opacity="1" stroke-width="1" stroke-linecap="square" stroke-linejoin="bevel" transform="matrix(1.99934,0,0,1.99934,0.000799735,71.9761)"
font-family="Sans Serif" font-size="9" font-weight="400" font-style="normal" 
>
</g>

<g fill="#ffffff" fill-opacity="1" stroke="none" transform="matrix(1.99934,0,0,1.99934,0.000799735,71.9761)"
font-family="Sans Serif" font-size="9" font-weight="400" font-style="normal" 
>
<rect x="-0.0004" y="-36" width="516.671" height="36"/>
</g>

<g fill="none" stroke="#000000" stroke-opacity="1" stroke-width="1" stroke-linecap="square" stroke-linejoin="bevel" transform="matrix(1.99934,0,0,1.99934,0.000799735,71.9761)"
font-family="Sans Serif" font-size="9" font-weight="400" font-style="normal" 
>
</g>

<g fill="none" stroke="#000000" stroke-opacity="1" stroke-width="1" stroke-linecap="square" stroke-linejoin="bevel" transform="matrix(1.99934,0,0,1.99934,0.000799735,71.9761)"
font-family="Sans Serif" font-size="9" font-weight="400" font-style="normal" 
>
</g>

<g fill="none" stroke="#000000" stroke-opacity="1" stroke-width="1" stroke-linecap="square" stroke-linejoin="bevel" transform="matrix(1.99934,0,0,1.99934,0.000799735,71.9761)"
font-family="Sans Serif" font-size="9" font-weight="400" font-style="normal" 
>
</g>

<g fill="none" stroke="#000000" stroke-opacity="1" stroke-width="1" stroke-linecap="square" stroke-linejoin="bevel" transform="matrix(1.99934,0,0,1.99934,0.000799735,71.9761)"
font-family="Sans Serif" font-size="9" font-weight="400" font-style="normal" 
>
</g>

<g fill="none" stroke="#000000" stroke-opacity="1" stroke-width="1" stroke-linecap="square" stroke-linejoin="round" transform="matrix(1.99934,0,0,1.99934,0.000799735,71.9761)"
font-family="Sans Serif" font-size="9" font-weight="400" font-style="normal" 
>
<ellipse cx="70.844" cy="-18" rx="70.3444" ry="17.5"/>
</g>

<g fill="none" stroke="#000000" stroke-opacity="1" stroke-width="1" stroke-linecap="square" stroke-linejoin="bevel" transform="matrix(1.99934,0,0,1.99934,0.000799735,71.9761)"
font-family="Sans Serif" font-size="9" font-weight="400" font-style="normal" 
>
</g>

<g fill="none" stroke="#000000" stroke-opacity="1" stroke-width="1" stroke-linecap="square" stroke-linejoin="bevel" transform="matrix(1.99934,0,0,1.99934,48.2822,22.9924)"
font-family="Sans Serif" font-size="9" font-weight="400" font-style="normal" 
>
</g>

<g fill="none" stroke="#000000" stroke-opacity="1" stroke-width="1" stroke-linecap="square" stroke-linejoin="bevel" transform="matrix(1.99934,0,0,1.99934,48.2822,22.9924)"
font-family="sans" font-size="11" font-weight="100" font-style="normal" 
>
</g>

<g fill="#000000" fill-opacity="1" stroke="#000000" stroke-opacity="1" stroke-width="1" stroke-linecap="square" stroke-linejoin="round" transform="matrix(1.99934,0,0,1.99934,48.2822,22.9924)"
font-family="sans" font-size="11" font-weight="100" font-style="normal" 
>
<path vector-effect="none" fill-rule="nonzero" d="M2.96875,1.98438 L3.53125,1.98438 L0.734375,11.0156 L0.171875,11.0156 L2.96875,1.98438 M8.35938,4.15625 L8.35938,4.70312 C8.00521,4.50521 7.78646,4.39583 7.70312,4.375 C7.45312,4.32292 7.14062,4.29167 6.76562,4.28125 C6.20312,4.28125 5.76042,4.39062 5.4375,4.60938 C5.1875,4.79688 5.0625,5.11458 5.0625,5.5625 C5.0625,5.875 5.18229,6.11458 5.42188,6.28125 C5.66146,6.46875 6.01042,6.61458 6.46875,6.71875 L6.8125,6.78125 C7.38542,6.90625 7.81771,7.08333 8.10938,7.3125 C8.45312,7.58333 8.63021,7.92708 8.64062,8.34375 C8.64062,8.90625 8.47396,9.34896 8.14062,9.67188 C7.78646,9.99479 7.20833,10.1562 6.40625,10.1562 C5.96875,10.1562 5.63542,10.125 5.40625,10.0625 C5.125,9.98958 4.83333,9.89583 4.53125,9.78125 L4.53125,9.15625 C4.96875,9.40625 5.25,9.55208 5.375,9.59375 C5.72917,9.6875 6.08333,9.73438 6.4375,9.73438 C7.01042,9.73438 7.4375,9.61458 7.71875,9.375 C8,9.125 8.14062,8.80729 8.14062,8.42188 C8.14062,8.08854 8.04688,7.84896 7.85938,7.70312 C7.58854,7.48438 7.16146,7.30729 6.57812,7.17188 L6.23438,7.09375 C5.72396,6.96875 5.33854,6.80208 5.07812,6.59375 C4.74479,6.32292 4.57812,5.99479 4.57812,5.60938 C4.57812,4.98438 4.77865,4.53385 5.17969,4.25781 C5.58073,3.98177 6.07292,3.84375 6.65625,3.84375 C7.15625,3.84375 7.5,3.86979 7.6875,3.92188 C7.91667,3.98438 8.14062,4.0625 8.35938,4.15625 M10.6562,3.98438 L11.1562,3.98438 L11.1562,10 L10.6562,10 L10.6562,3.98438 M10.6562,1.64062 L11.1562,1.64062 L11.1562,2.3125 L10.6562,2.3125 L10.6562,1.64062 M18.0469,5.29688 C18.2344,4.80729 18.526,4.44271 18.9219,4.20312 C19.3073,3.96354 19.7604,3.84375 20.2812,3.84375 C20.8021,3.84375 21.2188,4.02604 21.5312,4.39062 C21.8542,4.75521 22.0156,5.41667 22.0156,6.375 L22.0156,10 L21.5312,10 L21.5312,6.40625 C21.5312,5.57292 21.4167,5.01042 21.1875,4.71875 C20.9583,4.42708 20.651,4.28125 20.2656,4.28125 C19.7135,4.28125 19.2292,4.44792 18.8125,4.78125 C18.3438,5.15625 18.1094,5.76042 18.1094,6.59375 L18.1094,10 L17.625,10 L17.625,6.40625 C17.625,5.60417 17.513,5.04948 17.2891,4.74219 C17.0651,4.4349 16.7552,4.28125 16.3594,4.28125 C15.8073,4.28125 15.3229,4.45312 14.9062,4.79688 C14.4375,5.16146 14.2031,5.76042 14.2031,6.59375 L14.2031,10 L13.7188,10 L13.7188,3.98438 L14.2031,3.98438 L14.2031,5.10938 C14.3802,4.71354 14.6562,4.40104 15.0312,4.17188 C15.3958,3.95312 15.849,3.84375 16.3906,3.84375 C16.7448,3.84375 17.0833,3.95833 17.4062,4.1875 C17.6562,4.375 17.8698,4.74479 18.0469,5.29688 M24.3594,7.60938 L24.3594,3.98438 L24.8438,3.98438 L24.8438,7.57812 C24.8438,8.35938 24.9688,8.90885 25.2188,9.22656 C25.4688,9.54427 25.8385,9.70312 26.3281,9.70312 C26.901,9.70312 27.3906,9.53125 27.7969,9.1875 C28.2031,8.84375 28.4062,8.24479 28.4062,7.39062 L28.4062,3.98438 L28.8906,3.98438 L28.8906,10 L28.4062,10 L28.4062,8.875 C28.2292,9.23958 27.9948,9.51562 27.7031,9.70312 C27.2865,9.99479 26.8229,10.1406 26.3125,10.1406 C25.7188,10.1406 25.2448,9.9375 24.8906,9.53125 C24.5365,9.13542 24.3594,8.49479 24.3594,7.60938 M31.3906,1.64062 L31.875,1.64062 L31.875,10 L31.3906,10 L31.3906,1.64062 M36.8438,6.60938 C36.0417,6.60938 35.4661,6.75 35.1172,7.03125 C34.7682,7.3125 34.5938,7.72396 34.5938,8.26562 C34.5938,8.79688 34.7396,9.17448 35.0312,9.39844 C35.3229,9.6224 35.6667,9.73438 36.0625,9.73438 C36.8125,9.73438 37.3542,9.41667 37.6875,8.78125 C38.0208,8.13542 38.1875,7.53125 38.1875,6.96875 L38.1875,6.60938 L36.8438,6.60938 M38.6875,6.5625 L38.6875,10 L38.1875,10 L38.1875,8.35938 C37.9167,9.16146 37.5521,9.67188 37.0938,9.89062 C36.7396,10.0677 36.3802,10.1562 36.0156,10.1562 C35.4219,10.1562 34.9531,9.99479 34.6094,9.67188 C34.2656,9.34896 34.0938,8.8776 34.0938,8.25781 C34.0938,7.63802 34.3177,7.14062 34.7656,6.76562 C35.2135,6.39062 35.9427,6.20312 36.9531,6.20312 L38.1875,6.20312 L38.1875,6.10938 C38.1875,5.57812 38.0312,5.14062 37.7188,4.79688 C37.4271,4.45312 36.9323,4.28125 36.2344,4.28125 C35.8906,4.28125 35.5417,4.34375 35.1875,4.46875 C34.9583,4.55208 34.6562,4.71875 34.2812,4.96875 L34.2812,4.4375 C34.6042,4.23958 34.9062,4.09896 35.1875,4.01562 C35.5833,3.90104 35.9635,3.84375 36.3281,3.84375 C37.0469,3.84375 37.6354,4.05729 38.0938,4.48438 C38.4896,4.84896 38.6875,5.54167 38.6875,6.5625 M41.6875,2.28125 L41.6875,3.98438 L43.7188,3.98438 L43.7188,4.40625 L41.6875,4.40625 L41.6875,8.01562 C41.6875,8.47396 41.7448,8.79688 41.8594,8.98438 C42.1094,9.38021 42.4688,9.57812 42.9375,9.57812 L43.7188,9.57812 L43.7188,10 L42.9531,10 C42.4635,10 42.0469,9.85677 41.7031,9.57031 C41.3594,9.28385 41.1875,8.76562 41.1875,8.01562 L41.1875,4.40625 L40.4688,4.40625 L40.4688,3.98438 L41.1875,3.98438 L41.1875,2.28125 L41.6875,2.28125 M50.1719,6.75 L50.1719,7.0625 L45.6094,7.0625 C45.6094,8.02083 45.7969,8.69792 46.1719,9.09375 C46.5885,9.52083 47.2031,9.73438 48.0156,9.73438 C48.2344,9.73438 48.5208,9.6875 48.875,9.59375 C49.2292,9.5 49.5833,9.35938 49.9375,9.17188 L49.9375,9.6875 C49.5833,9.84375 49.2214,9.96094 48.8516,10.0391 C48.4818,10.1172 48.1875,10.1562 47.9688,10.1562 C47.0417,10.1562 46.3438,9.90625 45.875,9.40625 C45.3646,8.875 45.1094,8.09375 45.1094,7.0625 C45.1094,5.98958 45.3385,5.1875 45.7969,4.65625 C46.276,4.11458 46.9427,3.84375 47.7969,3.84375 C48.5781,3.84375 49.1719,4.10417 49.5781,4.625 C49.974,5.16667 50.1719,5.875 50.1719,6.75 M49.6719,6.64062 C49.6719,5.79688 49.4792,5.18229 49.0938,4.79688 C48.7812,4.45312 48.349,4.28125 47.7969,4.28125 C47.2031,4.28125 46.7031,4.45833 46.2969,4.8125 C45.9219,5.14583 45.6979,5.75521 45.625,6.64062 L49.6719,6.64062 M56.25,5.35938 L56.25,1.64062 L56.7188,1.64062 L56.7188,10 L56.25,10 L56.25,8.64062 C56.0208,9.16146 55.7708,9.51562 55.5,9.70312 C55.1042,10.0052 54.724,10.1562 54.3594,10.1562 C53.651,10.1562 53.0599,9.86719 52.5859,9.28906 C52.112,8.71094 51.875,7.94792 51.875,7 C51.875,6.05208 52.112,5.28906 52.5859,4.71094 C53.0599,4.13281 53.651,3.84375 54.3594,3.84375 C54.724,3.84375 55.1042,3.98958 55.5,4.28125 C55.7708,4.47917 56.0208,4.83854 56.25,5.35938 M53.0156,4.90625 C52.599,5.32292 52.3906,6.02083 52.3906,7 C52.3906,7.97917 52.599,8.67708 53.0156,9.09375 C53.4323,9.51042 53.8698,9.71875 54.3281,9.71875 C54.776,9.71875 55.2083,9.51042 55.625,9.09375 C56.0312,8.67708 56.2344,7.97917 56.2344,7 C56.2344,6.02083 56.0312,5.32292 55.625,4.90625 C55.2083,4.48958 54.776,4.28125 54.3281,4.28125 C53.8698,4.28125 53.4323,4.48958 53.0156,4.90625 M63.5781,12.1719 L63.5781,12.5938 L57.8594,12.5938 L57.8594,12.1719 L63.5781,12.1719 M65.2344,2.28125 L65.2344,3.98438 L67.2656,3.98438 L67.2656,4.40625 L65.2344,4.40625 L65.2344,8.01562 C65.2344,8.47396 65.2917,8.79688 65.4062,8.98438 C65.6562,9.38021 66.0156,9.57812 66.4844,9.57812 L67.2656,9.57812 L67.2656,10 L66.5,10 C66.0104,10 65.5938,9.85677 65.25,9.57031 C64.9062,9.28385 64.7344,8.76562 64.7344,8.01562 L64.7344,4.40625 L64.0156,4.40625 L64.0156,3.98438 L64.7344,3.98438 L64.7344,2.28125 L65.2344,2.28125 M68.9688,7.60938 L68.9688,3.98438 L69.4531,3.98438 L69.4531,7.57812 C69.4531,8.35938 69.5781,8.90885 69.8281,9.22656 C70.0781,9.54427 70.4479,9.70312 70.9375,9.70312 C71.5104,9.70312 72,9.53125 72.4062,9.1875 C72.8125,8.84375 73.0156,8.24479 73.0156,7.39062 L73.0156,3.98438 L73.5,3.98438 L73.5,10 L73.0156,10 L73.0156,8.875 C72.8385,9.23958 72.6042,9.51562 72.3125,9.70312 C71.8958,9.99479 71.4323,10.1406 70.9219,10.1406 C70.3281,10.1406 69.8542,9.9375 69.5,9.53125 C69.1458,9.13542 68.9688,8.49479 68.9688,7.60938 M79.2656,4.40625 C79.1823,4.36458 79.0729,4.33333 78.9375,4.3125 C78.8125,4.29167 78.6615,4.28125 78.4844,4.28125 C77.8698,4.28125 77.3646,4.50521 76.9688,4.95312 C76.6458,5.31771 76.4844,5.94271 76.4844,6.82812 L76.4844,10 L76,10 L76,3.98438 L76.4844,3.98438 L76.4844,5.10938 C76.651,4.78646 76.8802,4.51562 77.1719,4.29688 C77.5677,3.99479 78.0365,3.84375 78.5781,3.84375 C78.724,3.84375 78.849,3.84896 78.9531,3.85938 C79.0573,3.85938 79.1615,3.86979 79.2656,3.89062 L79.2656,4.40625 M81.0312,2.28125 L81.0312,3.98438 L83.0625,3.98438 L83.0625,4.40625 L81.0312,4.40625 L81.0312,8.01562 C81.0312,8.47396 81.0885,8.79688 81.2031,8.98438 C81.4531,9.38021 81.8125,9.57812 82.2812,9.57812 L83.0625,9.57812 L83.0625,10 L82.2969,10 C81.8073,10 81.3906,9.85677 81.0469,9.57031 C80.7031,9.28385 80.5312,8.76562 80.5312,8.01562 L80.5312,4.40625 L79.8125,4.40625 L79.8125,3.98438 L80.5312,3.98438 L80.5312,2.28125 L81.0312,2.28125 M84.8281,1.64062 L85.3125,1.64062 L85.3125,10 L84.8281,10 L84.8281,1.64062 M92.5625,6.75 L92.5625,7.0625 L88,7.0625 C88,8.02083 88.1875,8.69792 88.5625,9.09375 C88.9792,9.52083 89.5938,9.73438 90.4062,9.73438 C90.625,9.73438 90.9115,9.6875 91.2656,9.59375 C91.6198,9.5 91.974,9.35938 92.3281,9.17188 L92.3281,9.6875 C91.974,9.84375 91.612,9.96094 91.2422,10.0391 C90.8724,10.1172 90.5781,10.1562 90.3594,10.1562 C89.4323,10.1562 88.7344,9.90625 88.2656,9.40625 C87.7552,8.875 87.5,8.09375 87.5,7.0625 C87.5,5.98958 87.7292,5.1875 88.1875,4.65625 C88.6667,4.11458 89.3333,3.84375 90.1875,3.84375 C90.9688,3.84375 91.5625,4.10417 91.9688,4.625 C92.3646,5.16667 92.5625,5.875 92.5625,6.75 M92.0625,6.64062 C92.0625,5.79688 91.8698,5.18229 91.4844,4.79688 C91.1719,4.45312 90.7396,4.28125 90.1875,4.28125 C89.5938,4.28125 89.0938,4.45833 88.6875,4.8125 C88.3125,5.14583 88.0885,5.75521 88.0156,6.64062 L92.0625,6.64062"/>
</g>

<g fill="none" stroke="#000000" stroke-opacity="1" stroke-width="1" stroke-linecap="square" stroke-linejoin="bevel" transform="matrix(1.99934,0,0,1.99934,48.2822,22.9924)"
font-family="sans" font-size="11" font-weight="100" font-style="normal" 
>
</g>

<g fill="none" stroke="#000000" stroke-opacity="1" stroke-width="1" stroke-linecap="square" stroke-linejoin="bevel" transform="matrix(1.99934,0,0,1.99934,48.2822,22.9924)"
font-family="Sans Serif" font-size="9" font-weight="400" font-style="normal" 
>
</g>

<g fill="none" stroke="#000000" stroke-opacity="1" stroke-width="1" stroke-linecap="square" stroke-linejoin="bevel" transform="matrix(1.99934,0,0,1.99934,0.000799735,71.9761)"
font-family="Sans Serif" font-size="9" font-weight="400" font-style="normal" 
>
</g>

<g fill="none" stroke="#000000" stroke-opacity="1" stroke-width="1" stroke-linecap="square" stroke-linejoin="bevel" transform="matrix(1.99934,0,0,1.99934,0.000799735,71.9761)"
font-family="Sans Serif" font-size="9" font-weight="400" font-style="normal" 
>
</g>

<g fill="none" stroke="#000000" stroke-opacity="1" stroke-width="1" stroke-linecap="square" stroke-linejoin="bevel" transform="matrix(1.99934,0,0,1.99934,0.000799735,71.9761)"
font-family="Sans Serif" font-size="9" font-weight="400" font-style="normal" 
>
</g>

<g fill="none" stroke="#000000" stroke-opacity="1" stroke-width="1" stroke-linecap="square" stroke-linejoin="round" transform="matrix(1.99934,0,0,1.99934,0.000799735,71.9761)"
font-family="Sans Serif" font-size="9" font-weight="400" font-style="normal" 
>
<ellipse cx="393.18" cy="-18" rx="122.991" ry="17.5"/>
</g>

<g fill="none" stroke="#000000" stroke-opacity="1" stroke-width="1" stroke-linecap="square" stroke-linejoin="bevel" transform="matrix(1.99934,0,0,1.99934,0.000799735,71.9761)"
font-family="Sans Serif" font-size="9" font-weight="400" font-style="normal" 
>
</g>

<g fill="none" stroke="#000000" stroke-opacity="1" stroke-width="1" stroke-linecap="square" stroke-linejoin="bevel" transform="matrix(1.99934,0,0,1.99934,608.722,22.9924)"
font-family="Sans Serif" font-size="9" font-weight="400" font-style="normal" 
>
</g>

<g fill="none" stroke="#000000" stroke-opacity="1" stroke-width="1" stroke-linecap="square" stroke-linejoin="bevel" transform="matrix(1.99934,0,0,1.99934,608.722,22.9924)"
font-family="sans" font-size="11" font-weight="100" font-style="normal" 
>
</g>

<g fill="#000000" fill-opacity="1" stroke="#000000" stroke-opacity="1" stroke-width="1" stroke-linecap="square" stroke-linejoin="round" transform="matrix(1.99934,0,0,1.99934,608.722,22.9924)"
font-family="sans" font-size="11" font-weight="100" font-style="normal" 
>
<path vector-effect="none" fill-rule="nonzero" d="M2.96875,1.98438 L3.53125,1.98438 L0.734375,11.0156 L0.171875,11.0156 L2.96875,1.98438 M8.21875,4.40625 C8.13542,4.36458 8.02604,4.33333 7.89062,4.3125 C7.76562,4.29167 7.61458,4.28125 7.4375,4.28125 C6.82292,4.28125 6.31771,4.50521 5.92188,4.95312 C5.59896,5.31771 5.4375,5.94271 5.4375,6.82812 L5.4375,10 L4.95312,10 L4.95312,3.98438 L5.4375,3.98438 L5.4375,5.10938 C5.60417,4.78646 5.83333,4.51562 6.125,4.29688 C6.52083,3.99479 6.98958,3.84375 7.53125,3.84375 C7.67708,3.84375 7.80208,3.84896 7.90625,3.85938 C8.01042,3.85938 8.11458,3.86979 8.21875,3.89062 L8.21875,4.40625 M14.1562,6.75 L14.1562,7.0625 L9.59375,7.0625 C9.59375,8.02083 9.78125,8.69792 10.1562,9.09375 C10.5729,9.52083 11.1875,9.73438 12,9.73438 C12.2188,9.73438 12.5052,9.6875 12.8594,9.59375 C13.2135,9.5 13.5677,9.35938 13.9219,9.17188 L13.9219,9.6875 C13.5677,9.84375 13.2057,9.96094 12.8359,10.0391 C12.4661,10.1172 12.1719,10.1562 11.9531,10.1562 C11.026,10.1562 10.3281,9.90625 9.85938,9.40625 C9.34896,8.875 9.09375,8.09375 9.09375,7.0625 C9.09375,5.98958 9.32292,5.1875 9.78125,4.65625 C10.2604,4.11458 10.9271,3.84375 11.7812,3.84375 C12.5625,3.84375 13.1562,4.10417 13.5625,4.625 C13.9583,5.16667 14.1562,5.875 14.1562,6.75 M13.6562,6.64062 C13.6562,5.79688 13.4635,5.18229 13.0781,4.79688 C12.7656,4.45312 12.3333,4.28125 11.7812,4.28125 C11.1875,4.28125 10.6875,4.45833 10.2812,4.8125 C9.90625,5.14583 9.68229,5.75521 9.60938,6.64062 L13.6562,6.64062 M20.3438,4.28125 L20.3438,4.79688 C20.0521,4.61979 19.8073,4.5 19.6094,4.4375 C19.276,4.33333 18.9583,4.28125 18.6562,4.28125 C17.7917,4.28125 17.1719,4.5026 16.7969,4.94531 C16.4219,5.38802 16.2344,6.07292 16.2344,7 C16.2344,7.9375 16.4219,8.6276 16.7969,9.07031 C17.1719,9.51302 17.7917,9.73438 18.6562,9.73438 C18.9479,9.73438 19.2292,9.69271 19.5,9.60938 C19.7917,9.53646 20.0729,9.42188 20.3438,9.26562 L20.3438,9.76562 C20.0729,9.90104 19.7917,10 19.5,10.0625 C19.1979,10.125 18.901,10.1562 18.6094,10.1562 C17.7344,10.1562 17.0365,9.91667 16.5156,9.4375 C15.9948,8.95833 15.7344,8.14323 15.7344,6.99219 C15.7344,5.84115 15.9948,5.02604 16.5156,4.54688 C17.0365,4.07812 17.7344,3.84375 18.6094,3.84375 C18.901,3.84375 19.2083,3.88542 19.5312,3.96875 C19.8542,4.04167 20.125,4.14583 20.3438,4.28125 M25.8594,5.01562 C25.5052,4.52604 25.0208,4.28125 24.4062,4.28125 C23.7917,4.28125 23.3073,4.52604 22.9531,5.01562 C22.599,5.49479 22.4219,6.15104 22.4219,6.98438 C22.4219,7.83854 22.599,8.51042 22.9531,9 C23.3073,9.48958 23.7917,9.73438 24.4062,9.73438 C25.0208,9.73438 25.5052,9.48958 25.8594,9 C26.2135,8.5 26.3906,7.82812 26.3906,6.98438 C26.3906,6.16146 26.2135,5.50521 25.8594,5.01562 M24.4062,3.84375 C25.1667,3.84375 25.7708,4.13021 26.2188,4.70312 C26.6667,5.27604 26.8906,6.03646 26.8906,6.98438 C26.8906,7.97396 26.6667,8.75521 26.2188,9.32812 C25.7708,9.90104 25.1667,10.1875 24.4062,10.1875 C23.625,10.1875 23.0104,9.90104 22.5625,9.32812 C22.125,8.75521 21.9062,7.97396 21.9062,6.98438 C21.9062,6.02604 22.1302,5.26302 22.5781,4.69531 C23.026,4.1276 23.6354,3.84375 24.4062,3.84375 M32.2656,4.40625 C32.1823,4.36458 32.0729,4.33333 31.9375,4.3125 C31.8125,4.29167 31.6615,4.28125 31.4844,4.28125 C30.8698,4.28125 30.3646,4.50521 29.9688,4.95312 C29.6458,5.31771 29.4844,5.94271 29.4844,6.82812 L29.4844,10 L29,10 L29,3.98438 L29.4844,3.98438 L29.4844,5.10938 C29.651,4.78646 29.8802,4.51562 30.1719,4.29688 C30.5677,3.99479 31.0365,3.84375 31.5781,3.84375 C31.724,3.84375 31.849,3.84896 31.9531,3.85938 C32.0573,3.85938 32.1615,3.86979 32.2656,3.89062 L32.2656,4.40625 M37.5156,5.35938 L37.5156,1.64062 L37.9844,1.64062 L37.9844,10 L37.5156,10 L37.5156,8.64062 C37.2865,9.16146 37.0365,9.51562 36.7656,9.70312 C36.3698,10.0052 35.9896,10.1562 35.625,10.1562 C34.9167,10.1562 34.3255,9.86719 33.8516,9.28906 C33.3776,8.71094 33.1406,7.94792 33.1406,7 C33.1406,6.05208 33.3776,5.28906 33.8516,4.71094 C34.3255,4.13281 34.9167,3.84375 35.625,3.84375 C35.9896,3.84375 36.3698,3.98958 36.7656,4.28125 C37.0365,4.47917 37.2865,4.83854 37.5156,5.35938 M34.2812,4.90625 C33.8646,5.32292 33.6562,6.02083 33.6562,7 C33.6562,7.97917 33.8646,8.67708 34.2812,9.09375 C34.6979,9.51042 35.1354,9.71875 35.5938,9.71875 C36.0417,9.71875 36.474,9.51042 36.8906,9.09375 C37.2969,8.67708 37.5,7.97917 37.5,7 C37.5,6.02083 37.2969,5.32292 36.8906,4.90625 C36.474,4.48958 36.0417,4.28125 35.5938,4.28125 C35.1354,4.28125 34.6979,4.48958 34.2812,4.90625 M44.8438,12.1719 L44.8438,12.5938 L39.125,12.5938 L39.125,12.1719 L44.8438,12.1719 M46.375,9.5625 L48.1406,9.5625 L48.1406,2.46875 L45.9375,3.35938 L45.9375,2.85938 L48.125,1.98438 L48.6719,1.98438 L48.6719,9.5625 L50.4531,9.5625 L50.4531,10 L46.375,10 L46.375,9.5625 M53.125,1.98438 L56.9219,1.98438 L56.9219,2.42188 L53.6562,2.42188 L53.6562,5.10938 C53.8229,5.04688 53.9844,5 54.1406,4.96875 C54.2969,4.9375 54.526,4.92188 54.8281,4.92188 C55.651,4.92188 56.3021,5.15104 56.7812,5.60938 C57.2604,6.05729 57.5,6.66146 57.5,7.42188 C57.5,8.28646 57.25,8.95833 56.75,9.4375 C56.2604,9.91667 55.5677,10.1562 54.6719,10.1562 C54.3802,10.1562 54.0781,10.1302 53.7656,10.0781 C53.4531,10.026 53.1302,9.95312 52.7969,9.85938 L52.7969,9.3125 C53.0781,9.4375 53.3698,9.53646 53.6719,9.60938 C53.974,9.67188 54.2917,9.70312 54.625,9.70312 C55.3333,9.70312 55.901,9.5 56.3281,9.09375 C56.7552,8.6875 56.9688,8.13021 56.9688,7.42188 C56.9688,6.78646 56.7604,6.28646 56.3438,5.92188 C55.9271,5.54688 55.3646,5.35938 54.6562,5.35938 C54.5104,5.35938 54.2917,5.40104 54,5.48438 C53.7188,5.55729 53.4271,5.67708 53.125,5.84375 L53.125,1.98438 M60.0312,9.5625 L64.5938,9.5625 L64.5938,10 L59.4688,10 L59.4688,9.4375 L61.4688,7.35938 C61.9583,6.85938 62.4062,6.39583 62.8125,5.96875 C63.1771,5.57292 63.4219,5.26562 63.5469,5.04688 C63.6719,4.82812 63.7344,4.53646 63.7344,4.17188 C63.7344,3.55729 63.5469,3.0625 63.1719,2.6875 C62.901,2.41667 62.4583,2.28125 61.8438,2.28125 C61.4792,2.28125 61.0677,2.38542 60.6094,2.59375 C60.401,2.6875 60.0521,2.89062 59.5625,3.20312 L59.5625,2.64062 C59.7708,2.49479 60.0729,2.32812 60.4688,2.14062 C60.9271,1.94271 61.3802,1.83854 61.8281,1.82812 C62.5156,1.82812 63.0938,2.01042 63.5625,2.375 C64.0208,2.72917 64.25,3.3125 64.25,4.125 C64.25,4.45833 64.1875,4.77083 64.0625,5.0625 C63.9167,5.40625 63.6927,5.75521 63.3906,6.10938 C63.2969,6.21354 63.0104,6.51042 62.5312,7 L60.0312,9.5625 M70.1094,2.28125 L66.7812,7.4375 L70.1094,7.4375 L70.1094,2.28125 M69.6875,1.98438 L70.6562,1.98438 L70.6562,7.4375 L71.8125,7.4375 L71.8125,7.875 L70.6562,7.875 L70.6562,10 L70.1094,10 L70.1094,7.875 L66.2188,7.875 L66.2188,7.3125 L69.6875,1.98438 M74,9.5625 L78.5625,9.5625 L78.5625,10 L73.4375,10 L73.4375,9.4375 L75.4375,7.35938 C75.9271,6.85938 76.375,6.39583 76.7812,5.96875 C77.1458,5.57292 77.3906,5.26562 77.5156,5.04688 C77.6406,4.82812 77.7031,4.53646 77.7031,4.17188 C77.7031,3.55729 77.5156,3.0625 77.1406,2.6875 C76.8698,2.41667 76.4271,2.28125 75.8125,2.28125 C75.4479,2.28125 75.0365,2.38542 74.5781,2.59375 C74.3698,2.6875 74.0208,2.89062 73.5312,3.20312 L73.5312,2.64062 C73.7396,2.49479 74.0417,2.32812 74.4375,2.14062 C74.8958,1.94271 75.349,1.83854 75.7969,1.82812 C76.4844,1.82812 77.0625,2.01042 77.5312,2.375 C77.9896,2.72917 78.2188,3.3125 78.2188,4.125 C78.2188,4.45833 78.1562,4.77083 78.0312,5.0625 C77.8854,5.40625 77.6615,5.75521 77.3594,6.10938 C77.2656,6.21354 76.9792,6.51042 76.5,7 L74,9.5625 M84.0781,2.28125 L80.75,7.4375 L84.0781,7.4375 L84.0781,2.28125 M83.6562,1.98438 L84.625,1.98438 L84.625,7.4375 L85.7812,7.4375 L85.7812,7.875 L84.625,7.875 L84.625,10 L84.0781,10 L84.0781,7.875 L80.1875,7.875 L80.1875,7.3125 L83.6562,1.98438 M88.125,9.82812 L88.125,9.26562 C88.375,9.41146 88.625,9.52604 88.875,9.60938 C89.125,9.68229 89.375,9.71875 89.625,9.71875 C90.6875,9.71875 91.4323,9.19792 91.8594,8.15625 C92.0573,7.67708 92.1458,6.86979 92.125,5.73438 C91.9479,6.13021 91.7188,6.4375 91.4375,6.65625 C91.0729,6.94792 90.6146,7.09375 90.0625,7.09375 C89.3854,7.09375 88.8229,6.85417 88.375,6.375 C87.9271,5.90625 87.7031,5.30208 87.7031,4.5625 C87.7031,3.73958 87.9219,3.07812 88.3594,2.57812 C88.8073,2.07812 89.3802,1.82812 90.0781,1.82812 C90.9219,1.82812 91.5677,2.1875 92.0156,2.90625 C92.4635,3.61458 92.6875,4.64583 92.6875,6 C92.6875,7.4375 92.4115,8.48958 91.8594,9.15625 C91.3177,9.82292 90.5833,10.1562 89.6562,10.1562 C89.4062,10.1562 89.1562,10.1302 88.9062,10.0781 C88.6562,10.026 88.3958,9.94271 88.125,9.82812 M88.7656,6.05469 C89.099,6.44531 89.5495,6.64062 90.1172,6.64062 C90.6849,6.64062 91.1354,6.44531 91.4688,6.05469 C91.8021,5.66406 91.9688,5.13021 91.9688,4.45312 C91.9688,3.77604 91.8021,3.24219 91.4688,2.85156 C91.1354,2.46094 90.6849,2.26562 90.1172,2.26562 C89.5495,2.26562 89.099,2.46094 88.7656,2.85156 C88.4323,3.24219 88.2656,3.77604 88.2656,4.45312 C88.2656,5.13021 88.4323,5.66406 88.7656,6.05469 M95.0312,1.98438 L98.8281,1.98438 L98.8281,2.42188 L95.5625,2.42188 L95.5625,5.10938 C95.7292,5.04688 95.8906,5 96.0469,4.96875 C96.2031,4.9375 96.4323,4.92188 96.7344,4.92188 C97.5573,4.92188 98.2083,5.15104 98.6875,5.60938 C99.1667,6.05729 99.4062,6.66146 99.4062,7.42188 C99.4062,8.28646 99.1562,8.95833 98.6562,9.4375 C98.1667,9.91667 97.474,10.1562 96.5781,10.1562 C96.2865,10.1562 95.9844,10.1302 95.6719,10.0781 C95.3594,10.026 95.0365,9.95312 94.7031,9.85938 L94.7031,9.3125 C94.9844,9.4375 95.276,9.53646 95.5781,9.60938 C95.8802,9.67188 96.1979,9.70312 96.5312,9.70312 C97.2396,9.70312 97.8073,9.5 98.2344,9.09375 C98.6615,8.6875 98.875,8.13021 98.875,7.42188 C98.875,6.78646 98.6667,6.28646 98.25,5.92188 C97.8333,5.54688 97.2708,5.35938 96.5625,5.35938 C96.4167,5.35938 96.1979,5.40104 95.9062,5.48438 C95.625,5.55729 95.3333,5.67708 95.0312,5.84375 L95.0312,1.98438 M102.25,9.5625 L104.016,9.5625 L104.016,2.46875 L101.812,3.35938 L101.812,2.85938 L104,1.98438 L104.547,1.98438 L104.547,9.5625 L106.328,9.5625 L106.328,10 L102.25,10 L102.25,9.5625 M109.078,9.82812 L109.078,9.26562 C109.328,9.41146 109.578,9.52604 109.828,9.60938 C110.078,9.68229 110.328,9.71875 110.578,9.71875 C111.641,9.71875 112.385,9.19792 112.812,8.15625 C113.01,7.67708 113.099,6.86979 113.078,5.73438 C112.901,6.13021 112.672,6.4375 112.391,6.65625 C112.026,6.94792 111.568,7.09375 111.016,7.09375 C110.339,7.09375 109.776,6.85417 109.328,6.375 C108.88,5.90625 108.656,5.30208 108.656,4.5625 C108.656,3.73958 108.875,3.07812 109.312,2.57812 C109.76,2.07812 110.333,1.82812 111.031,1.82812 C111.875,1.82812 112.521,2.1875 112.969,2.90625 C113.417,3.61458 113.641,4.64583 113.641,6 C113.641,7.4375 113.365,8.48958 112.812,9.15625 C112.271,9.82292 111.536,10.1562 110.609,10.1562 C110.359,10.1562 110.109,10.1302 109.859,10.0781 C109.609,10.026 109.349,9.94271 109.078,9.82812 M109.719,6.05469 C110.052,6.44531 110.503,6.64062 111.07,6.64062 C111.638,6.64062 112.089,6.44531 112.422,6.05469 C112.755,5.66406 112.922,5.13021 112.922,4.45312 C112.922,3.77604 112.755,3.24219 112.422,2.85156 C112.089,2.46094 111.638,2.26562 111.07,2.26562 C110.503,2.26562 110.052,2.46094 109.719,2.85156 C109.385,3.24219 109.219,3.77604 109.219,4.45312 C109.219,5.13021 109.385,5.66406 109.719,6.05469 M119.562,5.92969 C119.229,5.53906 118.779,5.34375 118.211,5.34375 C117.643,5.34375 117.193,5.53906 116.859,5.92969 C116.526,6.32031 116.359,6.85417 116.359,7.53125 C116.359,8.20833 116.526,8.74219 116.859,9.13281 C117.193,9.52344 117.643,9.71875 118.211,9.71875 C118.779,9.71875 119.229,9.52344 119.562,9.13281 C119.896,8.74219 120.062,8.20833 120.062,7.53125 C120.062,6.85417 119.896,6.32031 119.562,5.92969 M120.219,2.15625 L120.219,2.73438 C119.969,2.57812 119.714,2.46354 119.453,2.39062 C119.203,2.30729 118.953,2.26562 118.703,2.26562 C117.641,2.26562 116.896,2.79167 116.469,3.84375 C116.271,4.3125 116.182,5.11979 116.203,6.26562 C116.38,5.86979 116.609,5.5625 116.891,5.34375 C117.255,5.05208 117.719,4.90625 118.281,4.90625 C118.948,4.90625 119.505,5.14062 119.953,5.60938 C120.401,6.08854 120.625,6.69271 120.625,7.42188 C120.625,8.24479 120.406,8.90625 119.969,9.40625 C119.531,9.90625 118.958,10.1562 118.25,10.1562 C117.406,10.1562 116.76,9.80208 116.312,9.09375 C115.865,8.375 115.641,7.34375 115.641,6 C115.641,4.5625 115.917,3.50521 116.469,2.82812 C117.01,2.16146 117.745,1.82812 118.672,1.82812 C118.922,1.82812 119.172,1.85938 119.422,1.92188 C119.672,1.97396 119.938,2.05208 120.219,2.15625 M126.031,5.67188 C126.458,5.77604 126.797,6.01042 127.047,6.375 C127.286,6.71875 127.406,7.15104 127.406,7.67188 C127.406,8.46354 127.18,9.07552 126.727,9.50781 C126.273,9.9401 125.547,10.1562 124.547,10.1562 C124.203,10.1562 123.854,10.1042 123.5,10 C123.146,9.89583 122.781,9.72917 122.406,9.5 L122.406,8.92188 C122.708,9.18229 123.036,9.38021 123.391,9.51562 C123.745,9.65104 124.109,9.71875 124.484,9.71875 C125.255,9.71875 125.844,9.54167 126.25,9.1875 C126.656,8.84375 126.859,8.33854 126.859,7.67188 C126.859,7.13021 126.672,6.70312 126.297,6.39062 C125.922,6.08854 125.396,5.9375 124.719,5.9375 L123.781,5.9375 L123.781,5.48438 L124.766,5.48438 C125.38,5.48438 125.854,5.35938 126.188,5.10938 C126.51,4.85938 126.672,4.5 126.672,4.03125 C126.672,3.46875 126.505,3.03646 126.172,2.73438 C125.828,2.43229 125.344,2.28125 124.719,2.28125 C124.427,2.28125 124.109,2.33333 123.766,2.4375 C123.422,2.54167 123.047,2.70312 122.641,2.92188 L122.641,2.375 C123.057,2.19792 123.443,2.06771 123.797,1.98438 C124.161,1.89062 124.5,1.83854 124.812,1.82812 C125.635,1.82812 126.245,2.01562 126.641,2.39062 C127.026,2.76562 127.219,3.27604 127.219,3.92188 C127.219,4.33854 127.115,4.70833 126.906,5.03125 C126.708,5.34375 126.417,5.55729 126.031,5.67188 M129.875,9.5625 L134.438,9.5625 L134.438,10 L129.312,10 L129.312,9.4375 L131.312,7.35938 C131.802,6.85938 132.25,6.39583 132.656,5.96875 C133.021,5.57292 133.266,5.26562 133.391,5.04688 C133.516,4.82812 133.578,4.53646 133.578,4.17188 C133.578,3.55729 133.391,3.0625 133.016,2.6875 C132.745,2.41667 132.302,2.28125 131.688,2.28125 C131.323,2.28125 130.911,2.38542 130.453,2.59375 C130.245,2.6875 129.896,2.89062 129.406,3.20312 L129.406,2.64062 C129.615,2.49479 129.917,2.32812 130.312,2.14062 C130.771,1.94271 131.224,1.83854 131.672,1.82812 C132.359,1.82812 132.938,2.01042 133.406,2.375 C133.865,2.72917 134.094,3.3125 134.094,4.125 C134.094,4.45833 134.031,4.77083 133.906,5.0625 C133.76,5.40625 133.536,5.75521 133.234,6.10938 C133.141,6.21354 132.854,6.51042 132.375,7 L129.875,9.5625 M136.859,9.5625 L141.422,9.5625 L141.422,10 L136.297,10 L136.297,9.4375 L138.297,7.35938 C138.786,6.85938 139.234,6.39583 139.641,5.96875 C140.005,5.57292 140.25,5.26562 140.375,5.04688 C140.5,4.82812 140.562,4.53646 140.562,4.17188 C140.562,3.55729 140.375,3.0625 140,2.6875 C139.729,2.41667 139.286,2.28125 138.672,2.28125 C138.307,2.28125 137.896,2.38542 137.438,2.59375 C137.229,2.6875 136.88,2.89062 136.391,3.20312 L136.391,2.64062 C136.599,2.49479 136.901,2.32812 137.297,2.14062 C137.755,1.94271 138.208,1.83854 138.656,1.82812 C139.344,1.82812 139.922,2.01042 140.391,2.375 C140.849,2.72917 141.078,3.3125 141.078,4.125 C141.078,4.45833 141.016,4.77083 140.891,5.0625 C140.745,5.40625 140.521,5.75521 140.219,6.10938 C140.125,6.21354 139.839,6.51042 139.359,7 L136.859,9.5625 M144,9.82812 L144,9.26562 C144.25,9.41146 144.5,9.52604 144.75,9.60938 C145,9.68229 145.25,9.71875 145.5,9.71875 C146.562,9.71875 147.307,9.19792 147.734,8.15625 C147.932,7.67708 148.021,6.86979 148,5.73438 C147.823,6.13021 147.594,6.4375 147.312,6.65625 C146.948,6.94792 146.49,7.09375 145.938,7.09375 C145.26,7.09375 144.698,6.85417 144.25,6.375 C143.802,5.90625 143.578,5.30208 143.578,4.5625 C143.578,3.73958 143.797,3.07812 144.234,2.57812 C144.682,2.07812 145.255,1.82812 145.953,1.82812 C146.797,1.82812 147.443,2.1875 147.891,2.90625 C148.339,3.61458 148.562,4.64583 148.562,6 C148.562,7.4375 148.286,8.48958 147.734,9.15625 C147.193,9.82292 146.458,10.1562 145.531,10.1562 C145.281,10.1562 145.031,10.1302 144.781,10.0781 C144.531,10.026 144.271,9.94271 144,9.82812 M144.641,6.05469 C144.974,6.44531 145.424,6.64062 145.992,6.64062 C146.56,6.64062 147.01,6.44531 147.344,6.05469 C147.677,5.66406 147.844,5.13021 147.844,4.45312 C147.844,3.77604 147.677,3.24219 147.344,2.85156 C147.01,2.46094 146.56,2.26562 145.992,2.26562 C145.424,2.26562 144.974,2.46094 144.641,2.85156 C144.307,3.24219 144.141,3.77604 144.141,4.45312 C144.141,5.13021 144.307,5.66406 144.641,6.05469 M150.406,1.98438 L155.281,1.98438 L155.281,2.4375 L152.375,10 L151.797,10 L154.719,2.42188 L150.406,2.42188 L150.406,1.98438 M159.984,6 C159.38,6 158.906,6.16667 158.562,6.5 C158.229,6.83333 158.062,7.28906 158.062,7.86719 C158.062,8.44531 158.229,8.90104 158.562,9.23438 C158.906,9.56771 159.378,9.73438 159.977,9.73438 C160.576,9.73438 161.047,9.56771 161.391,9.23438 C161.745,8.90104 161.922,8.44792 161.922,7.875 C161.922,7.29167 161.75,6.83333 161.406,6.5 C161.062,6.16667 160.589,6 159.984,6 M158.891,5.73438 C158.547,5.59896 158.266,5.38021 158.047,5.07812 C157.807,4.76562 157.688,4.38021 157.688,3.92188 C157.688,3.27604 157.893,2.76562 158.305,2.39062 C158.716,2.01562 159.276,1.82812 159.984,1.82812 C160.693,1.82812 161.25,2.01562 161.656,2.39062 C162.062,2.76562 162.266,3.27604 162.266,3.92188 C162.266,4.39062 162.151,4.77604 161.922,5.07812 C161.682,5.39062 161.401,5.60938 161.078,5.73438 C161.474,5.85938 161.797,6.09375 162.047,6.4375 C162.307,6.79167 162.438,7.22917 162.438,7.75 C162.438,8.52083 162.229,9.11458 161.812,9.53125 C161.385,9.94792 160.776,10.1562 159.984,10.1562 C159.193,10.1562 158.583,9.94792 158.156,9.53125 C157.729,9.11458 157.516,8.52083 157.516,7.75 C157.516,7.22917 157.646,6.79167 157.906,6.4375 C158.198,6.08333 158.526,5.84896 158.891,5.73438 M158.695,2.71094 C158.388,2.9974 158.234,3.40104 158.234,3.92188 C158.234,4.44271 158.388,4.84896 158.695,5.14062 C159.003,5.43229 159.432,5.57812 159.984,5.57812 C160.526,5.57812 160.953,5.43229 161.266,5.14062 C161.578,4.84896 161.734,4.44271 161.734,3.92188 C161.734,3.40104 161.578,3 161.266,2.71875 C160.953,2.42708 160.526,2.28125 159.984,2.28125 C159.432,2.28125 159.003,2.42448 158.695,2.71094 M166.938,2.28125 C166.281,2.28125 165.792,2.59896 165.469,3.23438 C165.156,3.86979 165,4.78906 165,5.99219 C165,7.19531 165.156,8.11979 165.469,8.76562 C165.792,9.40104 166.281,9.71875 166.938,9.71875 C167.615,9.71875 168.109,9.40104 168.422,8.76562 C168.745,8.11979 168.906,7.19531 168.906,5.99219 C168.906,4.78906 168.745,3.86979 168.422,3.23438 C168.109,2.59896 167.615,2.28125 166.938,2.28125 M166.938,1.82812 C167.708,1.82812 168.318,2.14583 168.766,2.78125 C169.224,3.41667 169.453,4.48958 169.453,6 C169.453,7.51042 169.224,8.58333 168.766,9.21875 C168.318,9.84375 167.708,10.1562 166.938,10.1562 C166.188,10.1562 165.583,9.84375 165.125,9.21875 C164.677,8.58333 164.453,7.51042 164.453,6 C164.453,4.48958 164.677,3.41667 165.125,2.78125 C165.583,2.14583 166.188,1.82812 166.938,1.82812 M174.922,5.67188 C175.349,5.77604 175.688,6.01042 175.938,6.375 C176.177,6.71875 176.297,7.15104 176.297,7.67188 C176.297,8.46354 176.07,9.07552 175.617,9.50781 C175.164,9.9401 174.438,10.1562 173.438,10.1562 C173.094,10.1562 172.745,10.1042 172.391,10 C172.036,9.89583 171.672,9.72917 171.297,9.5 L171.297,8.92188 C171.599,9.18229 171.927,9.38021 172.281,9.51562 C172.635,9.65104 173,9.71875 173.375,9.71875 C174.146,9.71875 174.734,9.54167 175.141,9.1875 C175.547,8.84375 175.75,8.33854 175.75,7.67188 C175.75,7.13021 175.562,6.70312 175.188,6.39062 C174.812,6.08854 174.286,5.9375 173.609,5.9375 L172.672,5.9375 L172.672,5.48438 L173.656,5.48438 C174.271,5.48438 174.745,5.35938 175.078,5.10938 C175.401,4.85938 175.562,4.5 175.562,4.03125 C175.562,3.46875 175.396,3.03646 175.062,2.73438 C174.719,2.43229 174.234,2.28125 173.609,2.28125 C173.318,2.28125 173,2.33333 172.656,2.4375 C172.312,2.54167 171.938,2.70312 171.531,2.92188 L171.531,2.375 C171.948,2.19792 172.333,2.06771 172.688,1.98438 C173.052,1.89062 173.391,1.83854 173.703,1.82812 C174.526,1.82812 175.135,2.01562 175.531,2.39062 C175.917,2.76562 176.109,3.27604 176.109,3.92188 C176.109,4.33854 176.005,4.70833 175.797,5.03125 C175.599,5.34375 175.307,5.55729 174.922,5.67188 "/>
</g>

<g fill="none" stroke="#000000" stroke-opacity="1" stroke-width="1" stroke-linecap="square" stroke-linejoin="bevel" transform="matrix(1.99934,0,0,1.99934,608.722,22.9924)"
font-family="sans" font-size="11" font-weight="100" font-style="normal" 
>
</g>

<g fill="none" stroke="#000000" stroke-opacity="1" stroke-width="1" stroke-linecap="square" stroke-linejoin="bevel" transform="matrix(1.99934,0,0,1.99934,608.722,22.9924)"
font-family="Sans Serif" font-size="9" font-weight="400" font-style="normal" 
>
</g>

<g fill="none" stroke="#000000" stroke-opacity="1" stroke-width="1" stroke-linecap="square" stroke-linejoin="bevel" transform="matrix(1.99934,0,0,1.99934,0.000799735,71.9761)"
font-family="Sans Serif" font-size="9" font-weight="400" font-style="normal" 
>
</g>

<g fill="none" stroke="#000000" stroke-opacity="1" stroke-width="1" stroke-linecap="square" stroke-linejoin="bevel" transform="matrix(1.99934,0,0,1.99934,0.000799735,71.9761)"
font-family="Sans Serif" font-size="9" font-weight="400" font-style="normal" 
>
</g>

<g fill="none" stroke="#000000" stroke-opacity="1" stroke-width="1" stroke-linecap="square" stroke-linejoin="bevel" transform="matrix(1.99934,0,0,1.99934,0.000799735,71.9761)"
font-family="Sans Serif" font-size="9" font-weight="400" font-style="normal" 
>
</g>

<g fill="none" stroke="#000000" stroke-opacity="1" stroke-width="1" stroke-linecap="square" stroke-linejoin="round" transform="matrix(1.99934,0,0,1.99934,0.000799735,71.9761)"
font-family="Sans Serif" font-size="9" font-weight="400" font-style="normal" 
>
<path vector-effect="none" fill-rule="evenodd" d="M141.75,-18 C176.2,-18 218.92,-18 259.27,-18 "/>
</g>

<g fill="none" stroke="#000000" stroke-opacity="1" stroke-width="1" stroke-linecap="square" stroke-linejoin="bevel" transform="matrix(1.99934,0,0,1.99934,0.000799735,71.9761)"
font-family="Sans Serif" font-size="9" font-weight="400" font-style="normal" 
>
</g>

<g fill="none" stroke="#000000" stroke-opacity="1" stroke-width="1" stroke-linecap="square" stroke-linejoin="bevel" transform="matrix(1.99934,0,0,1.99934,298.016,7.99735)"
font-family="Sans Serif" font-size="9" font-weight="400" font-style="normal" 
>
</g>

<g fill="none" stroke="#000000" stroke-opacity="1" stroke-width="1" stroke-linecap="square" stroke-linejoin="bevel" transform="matrix(1.99934,0,0,1.99934,298.016,7.99735)"
font-family="sans" font-size="11" font-weight="100" font-style="normal" 
>
</g>

<g fill="#000000" fill-opacity="1" stroke="#000000" stroke-opacity="1" stroke-width="1" stroke-linecap="square" stroke-linejoin="round" transform="matrix(1.99934,0,0,1.99934,298.016,7.99735)"
font-family="sans" font-size="11" font-weight="100" font-style="normal" 
>
<path vector-effect="none" fill-rule="nonzero" d="M2.96875,1.98438 L3.53125,1.98438 L0.734375,11.0156 L0.171875,11.0156 L2.96875,1.98438 M5.46875,2.28125 L5.46875,3.98438 L7.5,3.98438 L7.5,4.40625 L5.46875,4.40625 L5.46875,8.01562 C5.46875,8.47396 5.52604,8.79688 5.64062,8.98438 C5.89062,9.38021 6.25,9.57812 6.71875,9.57812 L7.5,9.57812 L7.5,10 L6.73438,10 C6.24479,10 5.82812,9.85677 5.48438,9.57031 C5.14062,9.28385 4.96875,8.76562 4.96875,8.01562 L4.96875,4.40625 L4.25,4.40625 L4.25,3.98438 L4.96875,3.98438 L4.96875,2.28125 L5.46875,2.28125 M9.20312,7.60938 L9.20312,3.98438 L9.6875,3.98438 L9.6875,7.57812 C9.6875,8.35938 9.8125,8.90885 10.0625,9.22656 C10.3125,9.54427 10.6823,9.70312 11.1719,9.70312 C11.7448,9.70312 12.2344,9.53125 12.6406,9.1875 C13.0469,8.84375 13.25,8.24479 13.25,7.39062 L13.25,3.98438 L13.7344,3.98438 L13.7344,10 L13.25,10 L13.25,8.875 C13.0729,9.23958 12.8385,9.51562 12.5469,9.70312 C12.1302,9.99479 11.6667,10.1406 11.1562,10.1406 C10.5625,10.1406 10.0885,9.9375 9.73438,9.53125 C9.38021,9.13542 9.20312,8.49479 9.20312,7.60938 M19.5,4.40625 C19.4167,4.36458 19.3073,4.33333 19.1719,4.3125 C19.0469,4.29167 18.8958,4.28125 18.7188,4.28125 C18.1042,4.28125 17.599,4.50521 17.2031,4.95312 C16.8802,5.31771 16.7188,5.94271 16.7188,6.82812 L16.7188,10 L16.2344,10 L16.2344,3.98438 L16.7188,3.98438 L16.7188,5.10938 C16.8854,4.78646 17.1146,4.51562 17.4062,4.29688 C17.8021,3.99479 18.2708,3.84375 18.8125,3.84375 C18.9583,3.84375 19.0833,3.84896 19.1875,3.85938 C19.2917,3.85938 19.3958,3.86979 19.5,3.89062 L19.5,4.40625 M21.2656,2.28125 L21.2656,3.98438 L23.2969,3.98438 L23.2969,4.40625 L21.2656,4.40625 L21.2656,8.01562 C21.2656,8.47396 21.3229,8.79688 21.4375,8.98438 C21.6875,9.38021 22.0469,9.57812 22.5156,9.57812 L23.2969,9.57812 L23.2969,10 L22.5312,10 C22.0417,10 21.625,9.85677 21.2812,9.57031 C20.9375,9.28385 20.7656,8.76562 20.7656,8.01562 L20.7656,4.40625 L20.0469,4.40625 L20.0469,3.98438 L20.7656,3.98438 L20.7656,2.28125 L21.2656,2.28125 M25.0625,1.64062 L25.5469,1.64062 L25.5469,10 L25.0625,10 L25.0625,1.64062 M32.7969,6.75 L32.7969,7.0625 L28.2344,7.0625 C28.2344,8.02083 28.4219,8.69792 28.7969,9.09375 C29.2135,9.52083 29.8281,9.73438 30.6406,9.73438 C30.8594,9.73438 31.1458,9.6875 31.5,9.59375 C31.8542,9.5 32.2083,9.35938 32.5625,9.17188 L32.5625,9.6875 C32.2083,9.84375 31.8464,9.96094 31.4766,10.0391 C31.1068,10.1172 30.8125,10.1562 30.5938,10.1562 C29.6667,10.1562 28.9688,9.90625 28.5,9.40625 C27.9896,8.875 27.7344,8.09375 27.7344,7.0625 C27.7344,5.98958 27.9635,5.1875 28.4219,4.65625 C28.901,4.11458 29.5677,3.84375 30.4219,3.84375 C31.2031,3.84375 31.7969,4.10417 32.2031,4.625 C32.599,5.16667 32.7969,5.875 32.7969,6.75 M32.2969,6.64062 C32.2969,5.79688 32.1042,5.18229 31.7188,4.79688 C31.4062,4.45312 30.974,4.28125 30.4219,4.28125 C29.8281,4.28125 29.3281,4.45833 28.9219,4.8125 C28.5469,5.14583 28.3229,5.75521 28.25,6.64062 L32.2969,6.64062 M35.2656,9.5625 L37.0312,9.5625 L37.0312,2.46875 L34.8281,3.35938 L34.8281,2.85938 L37.0156,1.98438 L37.5625,1.98438 L37.5625,9.5625 L39.3438,9.5625 L39.3438,10 L35.2656,10 L35.2656,9.5625 M43.5781,1.98438 L44.1406,1.98438 L41.3438,11.0156 L40.7812,11.0156 L43.5781,1.98438 M49.6719,4.28125 L49.6719,4.79688 C49.3802,4.61979 49.1354,4.5 48.9375,4.4375 C48.6042,4.33333 48.2865,4.28125 47.9844,4.28125 C47.1198,4.28125 46.5,4.5026 46.125,4.94531 C45.75,5.38802 45.5625,6.07292 45.5625,7 C45.5625,7.9375 45.75,8.6276 46.125,9.07031 C46.5,9.51302 47.1198,9.73438 47.9844,9.73438 C48.276,9.73438 48.5573,9.69271 48.8281,9.60938 C49.1198,9.53646 49.401,9.42188 49.6719,9.26562 L49.6719,9.76562 C49.401,9.90104 49.1198,10 48.8281,10.0625 C48.526,10.125 48.2292,10.1562 47.9375,10.1562 C47.0625,10.1562 46.3646,9.91667 45.8438,9.4375 C45.3229,8.95833 45.0625,8.14323 45.0625,6.99219 C45.0625,5.84115 45.3229,5.02604 45.8438,4.54688 C46.3646,4.07812 47.0625,3.84375 47.9375,3.84375 C48.2292,3.84375 48.5365,3.88542 48.8594,3.96875 C49.1823,4.04167 49.4531,4.14583 49.6719,4.28125 M55.1875,5.01562 C54.8333,4.52604 54.349,4.28125 53.7344,4.28125 C53.1198,4.28125 52.6354,4.52604 52.2812,5.01562 C51.9271,5.49479 51.75,6.15104 51.75,6.98438 C51.75,7.83854 51.9271,8.51042 52.2812,9 C52.6354,9.48958 53.1198,9.73438 53.7344,9.73438 C54.349,9.73438 54.8333,9.48958 55.1875,9 C55.5417,8.5 55.7188,7.82812 55.7188,6.98438 C55.7188,6.16146 55.5417,5.50521 55.1875,5.01562 M53.7344,3.84375 C54.4948,3.84375 55.099,4.13021 55.5469,4.70312 C55.9948,5.27604 56.2188,6.03646 56.2188,6.98438 C56.2188,7.97396 55.9948,8.75521 55.5469,9.32812 C55.099,9.90104 54.4948,10.1875 53.7344,10.1875 C52.9531,10.1875 52.3385,9.90104 51.8906,9.32812 C51.4531,8.75521 51.2344,7.97396 51.2344,6.98438 C51.2344,6.02604 51.4583,5.26302 51.9062,4.69531 C52.3542,4.1276 52.9635,3.84375 53.7344,3.84375 M58.3281,1.64062 L58.8125,1.64062 L58.8125,10 L58.3281,10 L58.3281,1.64062 M64.9531,5.01562 C64.599,4.52604 64.1146,4.28125 63.5,4.28125 C62.8854,4.28125 62.401,4.52604 62.0469,5.01562 C61.6927,5.49479 61.5156,6.15104 61.5156,6.98438 C61.5156,7.83854 61.6927,8.51042 62.0469,9 C62.401,9.48958 62.8854,9.73438 63.5,9.73438 C64.1146,9.73438 64.599,9.48958 64.9531,9 C65.3073,8.5 65.4844,7.82812 65.4844,6.98438 C65.4844,6.16146 65.3073,5.50521 64.9531,5.01562 M63.5,3.84375 C64.2604,3.84375 64.8646,4.13021 65.3125,4.70312 C65.7604,5.27604 65.9844,6.03646 65.9844,6.98438 C65.9844,7.97396 65.7604,8.75521 65.3125,9.32812 C64.8646,9.90104 64.2604,10.1875 63.5,10.1875 C62.7188,10.1875 62.1042,9.90104 61.6562,9.32812 C61.2188,8.75521 61,7.97396 61,6.98438 C61,6.02604 61.224,5.26302 61.6719,4.69531 C62.1198,4.1276 62.7292,3.84375 63.5,3.84375 M71.3594,4.40625 C71.276,4.36458 71.1667,4.33333 71.0312,4.3125 C70.9062,4.29167 70.7552,4.28125 70.5781,4.28125 C69.9635,4.28125 69.4583,4.50521 69.0625,4.95312 C68.7396,5.31771 68.5781,5.94271 68.5781,6.82812 L68.5781,10 L68.0938,10 L68.0938,3.98438 L68.5781,3.98438 L68.5781,5.10938 C68.7448,4.78646 68.974,4.51562 69.2656,4.29688 C69.6615,3.99479 70.1302,3.84375 70.6719,3.84375 C70.8177,3.84375 70.9427,3.84896 71.0469,3.85938 C71.151,3.85938 71.2552,3.86979 71.3594,3.89062 L71.3594,4.40625 M76.9688,12.1719 L76.9688,12.5938 L71.25,12.5938 L71.25,12.1719 L76.9688,12.1719 M81.5156,4.15625 L81.5156,4.70312 C81.1615,4.50521 80.9427,4.39583 80.8594,4.375 C80.6094,4.32292 80.2969,4.29167 79.9219,4.28125 C79.3594,4.28125 78.9167,4.39062 78.5938,4.60938 C78.3438,4.79688 78.2188,5.11458 78.2188,5.5625 C78.2188,5.875 78.3385,6.11458 78.5781,6.28125 C78.8177,6.46875 79.1667,6.61458 79.625,6.71875 L79.9688,6.78125 C80.5417,6.90625 80.974,7.08333 81.2656,7.3125 C81.6094,7.58333 81.7865,7.92708 81.7969,8.34375 C81.7969,8.90625 81.6302,9.34896 81.2969,9.67188 C80.9427,9.99479 80.3646,10.1562 79.5625,10.1562 C79.125,10.1562 78.7917,10.125 78.5625,10.0625 C78.2812,9.98958 77.9896,9.89583 77.6875,9.78125 L77.6875,9.15625 C78.125,9.40625 78.4062,9.55208 78.5312,9.59375 C78.8854,9.6875 79.2396,9.73438 79.5938,9.73438 C80.1667,9.73438 80.5938,9.61458 80.875,9.375 C81.1562,9.125 81.2969,8.80729 81.2969,8.42188 C81.2969,8.08854 81.2031,7.84896 81.0156,7.70312 C80.7448,7.48438 80.3177,7.30729 79.7344,7.17188 L79.3906,7.09375 C78.8802,6.96875 78.4948,6.80208 78.2344,6.59375 C77.901,6.32292 77.7344,5.99479 77.7344,5.60938 C77.7344,4.98438 77.9349,4.53385 78.3359,4.25781 C78.737,3.98177 79.2292,3.84375 79.8125,3.84375 C80.3125,3.84375 80.6562,3.86979 80.8438,3.92188 C81.0729,3.98438 81.2969,4.0625 81.5156,4.15625 M88.5156,6.75 L88.5156,7.0625 L83.9531,7.0625 C83.9531,8.02083 84.1406,8.69792 84.5156,9.09375 C84.9323,9.52083 85.5469,9.73438 86.3594,9.73438 C86.5781,9.73438 86.8646,9.6875 87.2188,9.59375 C87.5729,9.5 87.9271,9.35938 88.2812,9.17188 L88.2812,9.6875 C87.9271,9.84375 87.5651,9.96094 87.1953,10.0391 C86.8255,10.1172 86.5312,10.1562 86.3125,10.1562 C85.3854,10.1562 84.6875,9.90625 84.2188,9.40625 C83.7083,8.875 83.4531,8.09375 83.4531,7.0625 C83.4531,5.98958 83.6823,5.1875 84.1406,4.65625 C84.6198,4.11458 85.2865,3.84375 86.1406,3.84375 C86.9219,3.84375 87.5156,4.10417 87.9219,4.625 C88.3177,5.16667 88.5156,5.875 88.5156,6.75 M88.0156,6.64062 C88.0156,5.79688 87.8229,5.18229 87.4375,4.79688 C87.125,4.45312 86.6927,4.28125 86.1406,4.28125 C85.5469,4.28125 85.0469,4.45833 84.6406,4.8125 C84.2656,5.14583 84.0417,5.75521 83.9688,6.64062 L88.0156,6.64062 M95.1406,6.375 L95.1406,10 L94.6406,10 L94.6406,6.40625 C94.6406,5.625 94.5156,5.07552 94.2656,4.75781 C94.0156,4.4401 93.6458,4.28125 93.1562,4.28125 C92.5833,4.28125 92.099,4.45312 91.7031,4.79688 C91.2865,5.14062 91.0781,5.73958 91.0781,6.59375 L91.0781,10 L90.5938,10 L90.5938,3.98438 L91.0781,3.98438 L91.0781,5.10938 C91.2552,4.74479 91.4896,4.46875 91.7812,4.28125 C92.1979,3.98958 92.6615,3.84375 93.1719,3.84375 C93.776,3.84375 94.2552,4.04688 94.6094,4.45312 C94.9635,4.84896 95.1406,5.48958 95.1406,6.375 M100.969,4.15625 L100.969,4.70312 C100.615,4.50521 100.396,4.39583 100.312,4.375 C100.062,4.32292 99.75,4.29167 99.375,4.28125 C98.8125,4.28125 98.3698,4.39062 98.0469,4.60938 C97.7969,4.79688 97.6719,5.11458 97.6719,5.5625 C97.6719,5.875 97.7917,6.11458 98.0312,6.28125 C98.2708,6.46875 98.6198,6.61458 99.0781,6.71875 L99.4219,6.78125 C99.9948,6.90625 100.427,7.08333 100.719,7.3125 C101.062,7.58333 101.24,7.92708 101.25,8.34375 C101.25,8.90625 101.083,9.34896 100.75,9.67188 C100.396,9.99479 99.8177,10.1562 99.0156,10.1562 C98.5781,10.1562 98.2448,10.125 98.0156,10.0625 C97.7344,9.98958 97.4427,9.89583 97.1406,9.78125 L97.1406,9.15625 C97.5781,9.40625 97.8594,9.55208 97.9844,9.59375 C98.3385,9.6875 98.6927,9.73438 99.0469,9.73438 C99.6198,9.73438 100.047,9.61458 100.328,9.375 C100.609,9.125 100.75,8.80729 100.75,8.42188 C100.75,8.08854 100.656,7.84896 100.469,7.70312 C100.198,7.48438 99.7708,7.30729 99.1875,7.17188 L98.8438,7.09375 C98.3333,6.96875 97.9479,6.80208 97.6875,6.59375 C97.3542,6.32292 97.1875,5.99479 97.1875,5.60938 C97.1875,4.98438 97.388,4.53385 97.7891,4.25781 C98.1901,3.98177 98.6823,3.84375 99.2656,3.84375 C99.7656,3.84375 100.109,3.86979 100.297,3.92188 C100.526,3.98438 100.75,4.0625 100.969,4.15625 M106.859,5.01562 C106.505,4.52604 106.021,4.28125 105.406,4.28125 C104.792,4.28125 104.307,4.52604 103.953,5.01562 C103.599,5.49479 103.422,6.15104 103.422,6.98438 C103.422,7.83854 103.599,8.51042 103.953,9 C104.307,9.48958 104.792,9.73438 105.406,9.73438 C106.021,9.73438 106.505,9.48958 106.859,9 C107.214,8.5 107.391,7.82812 107.391,6.98438 C107.391,6.16146 107.214,5.50521 106.859,5.01562 M105.406,3.84375 C106.167,3.84375 106.771,4.13021 107.219,4.70312 C107.667,5.27604 107.891,6.03646 107.891,6.98438 C107.891,7.97396 107.667,8.75521 107.219,9.32812 C106.771,9.90104 106.167,10.1875 105.406,10.1875 C104.625,10.1875 104.01,9.90104 103.562,9.32812 C103.125,8.75521 102.906,7.97396 102.906,6.98438 C102.906,6.02604 103.13,5.26302 103.578,4.69531 C104.026,4.1276 104.635,3.84375 105.406,3.84375 M113.266,4.40625 C113.182,4.36458 113.073,4.33333 112.938,4.3125 C112.812,4.29167 112.661,4.28125 112.484,4.28125 C111.87,4.28125 111.365,4.50521 110.969,4.95312 C110.646,5.31771 110.484,5.94271 110.484,6.82812 L110.484,10 L110,10 L110,3.98438 L110.484,3.98438 L110.484,5.10938 C110.651,4.78646 110.88,4.51562 111.172,4.29688 C111.568,3.99479 112.036,3.84375 112.578,3.84375 C112.724,3.84375 112.849,3.84896 112.953,3.85938 C113.057,3.85938 113.161,3.86979 113.266,3.89062 L113.266,4.40625"/>
</g>

<g fill="none" stroke="#000000" stroke-opacity="1" stroke-width="1" stroke-linecap="square" stroke-linejoin="bevel" transform="matrix(1.99934,0,0,1.99934,298.016,7.99735)"
font-family="sans" font-size="11" font-weight="100" font-style="normal" 
>
</g>

<g fill="none" stroke="#000000" stroke-opacity="1" stroke-width="1" stroke-linecap="square" stroke-linejoin="bevel" transform="matrix(1.99934,0,0,1.99934,298.016,7.99735)"
font-family="Sans Serif" font-size="9" font-weight="400" font-style="normal" 
>
</g>

<g fill="none" stroke="#000000" stroke-opacity="1" stroke-width="1" stroke-linecap="square" stroke-linejoin="bevel" transform="matrix(1.99934,0,0,1.99934,0.000799735,71.9761)"
font-family="Sans Serif" font-size="9" font-weight="400" font-style="normal" 
>
</g>

<g fill="#000000" fill-opacity="1" stroke="#000000" stroke-opacity="1" stroke-width="1" stroke-linecap="square" stroke-linejoin="round" transform="matrix(1.99934,0,0,1.99934,0.000799735,71.9761)"
font-family="Sans Serif" font-size="9" font-weight="400" font-style="normal" 
>
<path vector-effect="none" fill-rule="evenodd" d="M259.27,-18 L259.27,-14.43 L269.47,-18 L259.27,-21.57 L259.27,-18"/>
</g>

<g fill="none" stroke="#000000" stroke-opacity="1" stroke-width="1" stroke-linecap="square" stroke-linejoin="bevel" transform="matrix(1.99934,0,0,1.99934,0.000799735,71.9761)"
font-family="Sans Serif" font-size="9" font-weight="400" font-style="normal" 
>
</g>

<g fill="none" stroke="#000000" stroke-opacity="1" stroke-width="1" stroke-linecap="square" stroke-linejoin="bevel" transform="matrix(1,0,0,1,0,0)"
font-family="Sans Serif" font-size="9" font-weight="400" font-style="normal" 
>
</g>
</g>
</svg>
